<?xml version="1.0" standalone="no"?>
<!DOCTYPE svg PUBLIC "-//W3C//DTD SVG 20010904//EN"
 "http://www.w3.org/TR/2001/REC-SVG-20010904/DTD/svg10.dtd">
<svg version="1.0" xmlns="http://www.w3.org/2000/svg"
 width="512.000000pt" height="512.000000pt" viewBox="0 0 512.000000 512.000000"
 preserveAspectRatio="xMidYMid meet">
<metadata>
Created by potrace 1.16, written by Peter Selinger 2001-2019
</metadata>
<g transform="translate(0.000000,512.000000) scale(0.100000,-0.100000)"
fill="#000000" stroke="none">
<path d="M0 2560 l0 -2560 2560 0 2560 0 0 2560 0 2560 -2560 0 -2560 0 0
-2560z m2648 2242 c-95 -48 -114 -62 -96 -73 7 -5 21 -6 32 -3 11 4 16 2 12
-4 -3 -5 0 -12 7 -15 16 -6 80 1 86 11 4 4 15 9 26 10 11 2 24 8 30 13 15 15
55 11 55 -6 0 -8 6 -16 13 -17 39 -5 65 -3 60 5 -3 5 -17 6 -31 2 -22 -5 -24
-4 -13 9 11 13 11 16 -3 16 -9 0 -16 6 -16 14 0 9 7 12 20 9 11 -3 20 -8 20
-12 0 -4 18 -15 40 -25 38 -16 43 -16 89 -1 27 9 62 18 78 21 15 3 37 7 48 10
16 4 17 3 5 -5 -8 -5 -44 -17 -80 -27 -36 -9 -71 -18 -79 -20 -10 -3 -4 -12
19 -25 27 -17 43 -20 74 -14 70 11 175 14 181 4 9 -14 37 -11 29 4 -5 9 -4 9
6 0 8 -7 32 -9 66 -6 32 4 54 2 54 -4 0 -5 -15 -7 -32 -5 l-33 5 25 -29 25
-29 -30 25 c-21 18 -39 25 -58 22 -23 -3 -26 -6 -16 -18 6 -8 26 -15 43 -15
l31 -1 -30 -7 c-23 -6 -34 -3 -46 12 -8 10 -22 18 -30 17 -25 -4 -39 0 -39 10
0 6 7 10 17 10 9 0 14 2 11 5 -3 4 -18 3 -34 -1 l-28 -7 36 -31 c35 -31 38
-31 149 -34 120 -3 153 -8 144 -22 -3 -5 -1 -11 5 -15 21 -13 8 -20 -32 -17
-33 2 -39 1 -28 -7 8 -6 31 -11 50 -11 58 0 252 -19 258 -25 3 -3 -9 -5 -26
-5 -37 0 -40 -10 -12 -35 11 -10 20 -23 20 -29 -1 -9 -18 8 -60 60 -5 7 -34
12 -65 13 l-56 0 26 -32 c44 -56 79 -87 98 -87 10 0 15 5 12 10 -11 18 8 11
32 -12 28 -26 39 -19 22 14 -12 23 -12 23 16 -2 15 -14 35 -42 46 -62 13 -25
25 -36 39 -35 11 1 18 6 16 12 -2 5 -8 9 -14 8 -6 -2 -9 4 -6 11 3 9 -3 17
-15 21 -23 7 -29 25 -8 25 20 0 32 -13 50 -52 12 -26 26 -40 45 -44 15 -3 33
-8 41 -10 7 -2 19 0 26 6 13 11 22 -4 50 -82 10 -26 20 -47 24 -46 20 2 30 -5
35 -27 4 -14 11 -23 16 -20 5 3 11 1 14 -4 4 -5 28 -17 54 -25 31 -11 49 -22
49 -33 0 -13 -2 -13 -14 3 -7 10 -13 13 -13 6 0 -7 -19 -1 -47 13 -50 27 -71
24 -35 -5 22 -18 31 -37 12 -25 -5 3 -10 2 -10 -3 0 -14 43 -50 90 -75 64 -32
100 -58 100 -70 0 -7 -4 -7 -12 1 -19 19 -30 14 -26 -10 2 -13 9 -22 16 -20 6
1 12 -4 12 -10 0 -16 66 -62 78 -54 11 6 46 -53 37 -62 -4 -4 -17 5 -28 20
-22 27 -77 55 -77 39 0 -4 9 -18 20 -31 24 -27 26 -38 5 -20 -21 18 -19 7 5
-20 11 -13 20 -31 20 -41 0 -10 4 -20 9 -24 6 -3 8 -14 6 -25 -2 -11 1 -22 6
-25 5 -4 7 -11 4 -16 -4 -5 -3 -14 1 -21 4 -7 8 -22 9 -34 0 -17 -3 -20 -11
-13 -9 8 -11 5 -7 -10 3 -12 9 -19 13 -16 4 3 11 -6 14 -20 3 -13 15 -29 26
-35 23 -12 25 -7 8 23 -7 12 -18 37 -24 55 -10 28 -10 33 2 28 8 -3 14 -1 14
4 0 6 -4 10 -10 10 -5 0 -10 5 -10 11 0 5 5 7 10 4 6 -3 10 -2 10 3 0 6 -6 12
-14 15 -24 9 -36 40 -21 54 10 9 19 5 41 -20 16 -17 21 -25 12 -18 -27 20 -22
6 7 -24 30 -29 40 -32 31 -8 -6 15 -4 15 14 -2 26 -24 46 -95 30 -105 -9 -5
-9 -13 -2 -27 6 -10 10 -50 8 -88 -2 -72 10 -106 46 -133 30 -22 47 -64 37
-90 -5 -13 -7 -28 -4 -32 3 -5 0 -10 -6 -12 -14 -5 -3 -78 11 -78 6 0 10 -6
10 -12 0 -7 4 -19 9 -27 8 -12 12 -12 25 -2 11 9 13 19 6 37 -5 13 -6 34 -1
46 l8 23 8 -25 c12 -39 12 -64 -2 -78 -7 -7 -13 -36 -13 -63 0 -28 -4 -48 -8
-45 -4 2 -8 -3 -9 -12 -1 -15 -10 -48 -28 -108 -4 -13 -1 -27 9 -37 9 -8 16
-25 16 -37 0 -11 7 -32 16 -45 9 -13 13 -29 9 -34 -3 -7 0 -8 9 -5 9 3 16 18
17 33 l0 26 12 -23 c7 -16 8 -26 0 -30 -16 -11 -26 -52 -15 -65 5 -7 12 -22
15 -35 4 -19 3 -21 -9 -11 -8 6 -14 19 -15 28 0 9 -3 11 -5 5 -3 -6 12 -55 32
-108 20 -54 33 -100 30 -103 -3 -3 -7 0 -10 8 -21 68 -61 171 -67 175 -9 5
-13 -14 -10 -51 1 -14 -1 -16 -7 -7 -5 8 -7 -10 -4 -45 2 -32 8 -62 13 -67 12
-14 11 -69 -1 -61 -5 3 -10 19 -10 34 0 15 -4 31 -9 37 -5 5 -12 18 -15 29 -3
11 -4 7 -2 -10 2 -16 -3 -43 -11 -58 -11 -22 -12 -32 -3 -41 8 -8 13 -7 20 4
5 8 12 11 16 8 4 -4 -1 -19 -11 -34 -11 -18 -14 -29 -7 -36 6 -6 8 -17 5 -24
-7 -20 7 -17 23 4 16 21 18 46 3 37 -6 -4 -5 2 3 14 13 21 13 21 21 -4 7 -20
3 -33 -17 -60 -14 -18 -26 -46 -27 -62 0 -23 -2 -25 -8 -9 -7 18 -9 17 -21
-11 -8 -18 -18 -29 -22 -27 -5 3 -17 -5 -28 -18 -21 -25 -26 -43 -10 -33 12 8
13 -5 1 -24 -11 -17 -3 -43 11 -35 6 4 8 -2 4 -15 -3 -11 -9 -31 -12 -43 -4
-16 9 -6 45 32 28 30 51 62 51 70 0 9 8 16 19 16 17 0 17 -2 5 -22 -8 -12 -11
-30 -8 -40 6 -18 6 -18 -7 -2 -13 16 -18 13 -57 -34 -39 -47 -43 -55 -37 -90
6 -35 3 -43 -29 -78 -20 -22 -36 -45 -36 -50 0 -6 -4 -9 -8 -7 -11 3 -72 -67
-72 -83 0 -9 7 -7 20 5 11 10 20 14 20 9 0 -5 -9 -15 -20 -21 -14 -9 -19 -23
-18 -48 1 -19 5 -35 10 -35 5 0 8 8 7 18 -1 9 3 28 9 42 6 14 11 18 12 10 1
-13 2 -13 13 0 7 8 28 25 47 38 26 17 21 10 -18 -26 -29 -28 -53 -56 -52 -63
5 -32 -1 -79 -9 -79 -4 0 -6 11 -3 25 2 15 0 25 -7 25 -6 0 -11 -7 -11 -15 0
-8 -6 -12 -14 -9 -10 4 -16 -5 -21 -28 -4 -18 -14 -42 -22 -53 -13 -18 -14
-17 -8 20 6 40 6 40 -12 19 -10 -12 -25 -24 -34 -27 -18 -6 -52 -97 -36 -97 6
0 3 -8 -5 -17 -9 -10 -19 -34 -23 -53 -7 -36 -22 -60 -35 -60 -4 0 -2 17 5 38
7 20 11 39 9 41 -7 8 -23 -13 -27 -35 -1 -11 -12 -33 -23 -49 -12 -17 -24 -37
-27 -45 -3 -9 -6 -5 -6 10 -1 14 6 35 14 47 10 14 12 24 5 28 -5 3 -15 -6 -20
-22 -25 -68 -41 -86 -56 -61 -4 6 -3 8 3 5 6 -4 16 6 21 22 9 25 8 29 -4 24
-7 -3 -12 -9 -9 -13 3 -5 -4 -12 -15 -15 -12 -4 -19 -12 -17 -18 2 -6 -5 -21
-15 -32 -10 -11 -22 -31 -25 -45 -3 -14 -13 -30 -22 -37 -26 -19 0 -38 30 -22
13 7 28 12 32 11 4 -1 17 3 28 9 12 6 33 13 47 15 15 3 32 10 39 16 8 6 13 7
13 1 0 -10 -78 -44 -115 -50 -11 -2 -22 -8 -23 -13 -2 -6 -7 -8 -12 -5 -15 10
-60 -15 -69 -37 -4 -12 -17 -22 -29 -23 -12 -1 -19 2 -16 7 3 4 12 8 20 8 8 0
14 5 14 10 0 12 0 12 -38 -1 -18 -6 -30 -15 -27 -20 3 -4 -14 -13 -37 -19 -24
-6 -56 -14 -72 -18 -16 -4 -37 -19 -45 -34 -24 -40 -72 -110 -94 -135 -16 -18
-27 -21 -69 -17 -35 2 -54 -1 -65 -11 -8 -8 -26 -15 -41 -16 -23 0 -24 -2 -8
-8 24 -9 10 -20 -33 -23 -18 -1 -37 -8 -43 -15 -8 -10 -4 -12 20 -7 16 3 40 1
52 -6 16 -9 25 -9 33 -1 6 6 22 11 35 11 20 0 21 -2 9 -14 -15 -16 -165 -24
-254 -13 -42 4 -54 2 -68 -13 -17 -18 -15 -19 41 -18 33 1 65 6 72 11 9 7 11
6 7 -5 -5 -11 3 -15 31 -16 57 -2 54 -12 -4 -12 -28 0 -54 -5 -57 -10 -4 -6
-10 -8 -15 -5 -4 3 -13 -2 -19 -9 -10 -12 -8 -15 6 -19 10 -2 0 -3 -21 -1 -45
4 -62 14 -24 14 14 0 31 7 38 15 7 8 17 12 23 8 5 -3 8 -2 4 3 -3 5 -34 11
-69 12 -49 2 -68 -1 -78 -12 -11 -14 -9 -16 14 -16 15 0 25 -4 22 -8 -3 -5
-27 -6 -53 -1 -30 4 -52 3 -58 -3 -7 -8 -5 -9 8 -5 9 4 17 2 17 -3 0 -6 3 -9
8 -9 24 4 52 -3 47 -11 -3 -6 -23 -8 -45 -5 -26 3 -42 0 -50 -10 -15 -18 -37
-20 -42 -4 -2 7 -9 5 -17 -5 -11 -14 -11 -16 3 -16 9 0 16 -4 16 -10 0 -13
-13 -13 -27 1 -8 8 -23 3 -57 -20 -28 -20 -43 -26 -40 -16 3 8 9 15 13 15 4 0
16 8 27 18 10 10 34 27 52 37 34 20 45 42 15 30 -10 -4 -26 -10 -35 -12 -10
-3 -15 -10 -11 -16 3 -5 1 -7 -5 -3 -6 3 -13 2 -17 -4 -3 -5 -11 -10 -17 -10
-6 0 5 14 23 31 19 17 27 27 19 23 -8 -5 -19 -9 -25 -10 -29 -4 -54 -18 -48
-27 3 -6 1 -7 -6 -3 -14 9 -43 -12 -35 -25 3 -5 -2 -6 -10 -3 -9 3 -31 -3 -49
-15 -41 -25 -57 -26 -83 -5 -18 15 -17 15 14 10 19 -3 43 -1 54 5 19 10 19 11
1 23 -33 23 -71 27 -109 11 -20 -8 -45 -15 -56 -15 -10 0 -17 -4 -14 -9 4 -5
-2 -7 -13 -4 -10 3 -22 0 -25 -6 -4 -6 -18 -11 -32 -11 -31 0 -31 -17 1 -32
14 -6 25 -15 25 -19 0 -8 -54 18 -118 58 -32 20 -76 21 -88 2 -7 -12 -44 -11
-44 1 0 6 -5 10 -10 10 -6 0 -20 9 -32 20 -12 11 -28 20 -35 20 -7 0 -13 5
-13 10 0 6 -8 10 -18 10 -11 0 -29 9 -42 20 -13 11 -30 20 -38 20 -9 0 -2 -10
18 -25 l34 -25 -27 0 c-36 0 -33 -9 13 -45 21 -16 39 -34 40 -38 0 -9 -83 53
-88 66 -2 4 -19 7 -38 7 -20 0 -33 4 -29 10 3 5 13 6 22 3 11 -4 14 -2 9 5 -4
7 -20 9 -39 6 l-32 -5 25 16 c14 8 18 15 10 14 -8 -1 -29 -1 -47 0 -26 1 -31
5 -28 21 3 15 -2 20 -17 20 -12 0 -18 3 -15 7 4 3 0 15 -10 25 -16 18 -93 27
-93 10 0 -13 55 -62 69 -62 7 0 10 -4 6 -10 -3 -5 3 -18 15 -30 29 -29 10 -25
-22 5 -15 14 -32 25 -38 25 -6 0 -9 4 -6 8 3 5 -7 23 -22 41 -23 27 -35 32
-77 35 -39 2 -52 7 -61 24 -5 11 -21 30 -35 41 -13 10 -21 23 -16 27 4 4 13 2
19 -4 14 -14 62 -16 53 -2 -3 5 -24 13 -45 16 -22 4 -45 13 -51 20 -14 17 2
19 19 2 6 -6 15 -9 18 -5 11 10 -27 48 -45 45 -9 -1 -26 4 -39 11 -13 7 -31
10 -39 7 -9 -4 -24 1 -34 10 -35 32 -22 -19 24 -98 42 -69 46 -73 80 -73 19 0
39 -3 43 -7 4 -5 -13 -8 -37 -8 -39 0 -47 4 -64 32 -11 17 -30 48 -42 67 -13
20 -28 47 -34 61 -13 32 -49 66 -49 48 -1 -8 -7 -5 -15 6 -19 25 -20 42 -2 27
10 -8 14 -7 14 3 0 8 -11 19 -24 25 -13 6 -22 15 -18 20 3 6 -3 14 -12 20 -10
6 -13 11 -8 11 6 0 3 5 -5 10 -19 12 -33 13 -25 0 3 -5 -11 -4 -30 3 -20 7
-36 17 -35 21 2 9 -19 26 -33 26 -5 0 -6 -4 -3 -9 3 -5 -2 -12 -11 -15 -10 -4
-14 -4 -10 0 4 4 -7 16 -24 26 -19 12 -29 24 -25 33 3 8 2 14 -2 13 -8 -1 -31
7 -77 27 -22 9 -34 24 -42 49 -6 20 -8 36 -3 36 4 0 11 -15 14 -34 5 -28 13
-37 41 -46 19 -6 39 -9 44 -6 5 4 11 0 14 -6 2 -7 7 -10 11 -7 4 4 1 18 -5 33
-9 18 -15 23 -20 14 -8 -12 -17 5 -33 62 -6 19 -5 21 3 10 9 -13 11 -12 11 5
-1 19 -30 68 -30 49 0 -5 -5 -2 -10 6 -5 8 -13 15 -17 15 -14 1 -57 27 -80 48
-22 20 -46 35 -93 59 -14 7 -31 18 -38 25 -8 7 -22 18 -33 23 -10 6 -19 21
-19 33 0 21 1 21 13 -3 7 -13 22 -29 34 -35 11 -6 28 -17 37 -24 9 -7 22 -11
29 -8 7 3 19 -3 25 -14 7 -11 18 -16 27 -13 10 4 12 10 7 18 -5 6 -12 36 -16
66 -8 57 -19 80 -41 80 -12 0 -8 -36 11 -105 5 -15 3 -17 -6 -9 -6 6 -13 27
-16 45 -3 19 -8 41 -11 49 -3 8 -7 26 -8 40 -2 14 -8 38 -15 55 -9 23 -13 26
-20 15 -8 -12 -10 -10 -10 7 0 12 -8 27 -18 32 -15 8 -17 5 -17 -15 1 -13 4
-27 8 -30 3 -4 2 -15 -4 -25 -7 -13 -6 -26 2 -40 8 -15 8 -19 0 -15 -6 4 -11
3 -11 -3 0 -5 5 -13 10 -16 6 -4 8 -11 4 -16 -12 -20 -31 23 -24 55 5 24 2 37
-14 56 -14 17 -15 20 -3 11 15 -12 17 -11 17 7 0 12 -4 24 -10 27 -5 3 -10 16
-10 29 0 12 -10 31 -23 43 -19 16 -22 26 -18 59 l6 39 3 -40 c3 -36 15 -54 34
-55 3 0 5 21 3 46 -2 36 -10 52 -35 77 l-32 31 2 -59 c3 -79 2 -82 -15 -59
-15 20 -20 49 -7 40 5 -3 9 19 9 47 1 46 -3 55 -29 80 -24 22 -29 33 -24 53
l7 25 18 -23 c10 -12 17 -28 14 -34 -2 -7 0 -15 6 -19 6 -3 12 0 12 7 9 80 7
92 -16 126 -14 20 -25 40 -25 44 0 13 -63 108 -71 108 -12 0 -11 47 1 55 18
11 11 71 -11 99 -22 27 -22 28 -4 89 10 34 22 67 26 72 9 12 -11 79 -25 84 -6
2 -23 -21 -38 -51 -16 -29 -26 -44 -22 -33 3 11 9 30 11 43 3 12 9 22 14 22 5
0 9 9 9 19 0 11 6 21 13 24 9 3 9 7 0 19 -10 11 -10 21 -1 46 7 18 16 32 20
32 4 0 8 12 8 27 0 14 12 41 26 60 22 29 24 39 18 78 -6 46 -20 58 -31 28 -8
-21 -74 -123 -80 -123 -5 0 43 87 67 120 25 36 36 75 19 64 -12 -6 -12 -5 0 9
9 12 11 30 7 62 -5 29 -3 45 3 45 6 0 8 -6 5 -14 -3 -8 2 -29 12 -47 9 -18 17
-50 18 -71 1 -21 8 -44 16 -51 11 -10 11 -8 5 8 -11 28 -9 65 5 79 9 8 10 5 5
-15 -4 -16 -2 -30 4 -34 6 -3 8 -11 5 -17 -4 -7 -2 -8 5 -4 6 4 9 12 5 17 -3
5 -5 37 -5 70 0 52 -2 59 -15 48 -8 -6 -12 -20 -9 -30 3 -9 1 -20 -5 -24 -9
-6 -15 8 -10 30 1 5 2 17 3 27 1 9 5 16 10 15 16 -3 24 46 17 103 -4 30 -5 70
-2 88 2 17 0 32 -5 32 -5 0 -30 -22 -56 -50 -26 -27 -47 -46 -47 -42 0 5 22
31 50 58 27 27 50 55 50 62 0 6 4 12 8 12 9 0 14 -46 14 -138 0 -53 10 -73 24
-50 10 16 11 128 2 121 -5 -2 -8 5 -8 16 0 10 5 21 12 23 8 3 8 9 -1 24 -10
15 -11 15 -7 2 6 -20 -10 -25 -16 -6 -6 16 42 88 58 88 22 0 55 53 54 85 -1
16 -1 32 0 35 1 3 3 19 4 36 2 31 25 64 43 64 5 0 22 14 38 30 17 17 23 30 15
30 -9 0 -7 6 6 21 l19 22 -33 -17 c-20 -10 -32 -23 -29 -31 6 -15 -30 -58 -43
-50 -13 8 -3 48 15 61 8 6 19 35 24 65 l10 54 -2 -47 c-1 -28 2 -48 8 -48 14
0 47 38 64 75 11 23 15 26 18 13 12 -48 58 14 77 105 l7 28 -31 -16 c-17 -9
-29 -19 -26 -23 2 -4 -2 -15 -9 -25 -16 -23 -25 -10 -14 20 5 13 25 30 48 39
42 17 48 30 93 197 6 26 16 47 21 47 5 0 6 -8 2 -17 -15 -38 -34 -107 -30
-111 5 -5 68 30 77 43 4 6 8 6 8 2 0 -11 120 54 120 65 0 5 -10 7 -22 4 -14
-3 -10 0 8 8 16 8 36 26 42 41 12 25 11 26 -10 20 -13 -4 -28 -13 -34 -21 -13
-16 -34 -19 -34 -5 0 6 5 13 10 16 6 4 8 11 4 17 -3 5 2 9 12 7 11 -1 27 1 37
4 9 4 25 10 35 14 9 3 24 5 34 4 9 -1 19 3 23 9 3 6 10 8 15 5 14 -9 60 25 60
44 0 14 -2 14 -11 1 -9 -13 -10 -13 -6 0 2 8 10 15 17 15 7 0 15 5 17 12 3 8
-7 10 -33 7 -41 -5 -64 -19 -64 -39 0 -7 -7 -18 -15 -25 -19 -16 -19 -6 2 42
14 32 21 38 39 34 11 -3 24 -2 28 2 4 4 13 7 19 8 7 0 20 2 29 2 9 1 20 11 23
22 4 13 15 20 31 20 15 0 24 6 24 15 0 9 7 18 15 21 8 3 17 14 20 25 4 12 15
19 28 18 13 -1 16 -3 7 -5 -12 -4 -41 -41 -58 -76 -2 -4 14 -4 35 -1 28 4 50
18 82 52 l44 46 -34 6 c-33 6 -33 6 9 8 23 0 42 5 42 10 0 5 7 11 15 15 19 7
19 -8 0 -27 -8 -8 -11 -17 -8 -21 4 -3 0 -6 -8 -6 -8 0 -21 -8 -30 -18 -29
-34 -31 -42 -10 -42 21 0 101 69 101 87 0 4 12 16 28 26 l27 18 -30 -4 c-16
-3 -64 -1 -105 3 l-75 7 69 2 c50 1 75 6 90 19 20 16 20 16 7 0 -12 -16 -10
-18 20 -18 26 0 41 9 70 40 37 40 63 53 53 25 -5 -11 2 -13 33 -9 32 4 35 3
20 -6 -11 -7 -30 -10 -44 -7 -17 3 -33 -3 -51 -19 l-27 -23 66 -1 c47 0 70 4
79 15 10 12 10 15 0 15 -10 0 -10 3 0 15 15 18 34 20 24 3 -4 -7 14 1 40 16
27 16 45 23 41 16 -6 -10 -2 -12 14 -7 18 4 20 3 10 -9 -14 -17 -9 -17 25 -4
14 5 28 5 31 0 3 -4 1 -10 -5 -12 -5 -1 11 -4 37 -5 26 -1 50 1 53 5 13 17
125 67 144 64 21 -4 21 -4 1 12 -11 8 -24 16 -28 16 -13 0 -108 42 -104 46 5
6 78 -16 125 -38 l43 -19 67 32 c37 17 69 34 72 38 6 8 61 29 80 30 8 0 -20
-16 -62 -37z"/>
<path d="M2515 4194 c-299 -31 -515 -105 -730 -249 -97 -65 -245 -193 -307
-266 -180 -212 -315 -488 -369 -756 -30 -150 -38 -448 -15 -591 33 -209 151
-508 267 -679 63 -92 284 -317 384 -391 145 -108 349 -196 571 -248 207 -48
481 -35 729 37 296 84 622 326 801 594 151 227 246 469 280 713 24 176 16 442
-19 582 -52 210 -144 429 -248 585 -73 110 -308 344 -420 418 -160 106 -357
186 -555 226 -99 20 -290 33 -369 25z m350 -938 c90 -25 159 -76 192 -145 24
-47 28 -69 28 -136 0 -51 -7 -99 -18 -132 -25 -73 -97 -150 -171 -183 l-59
-27 66 -6 c162 -15 277 -139 277 -296 -1 -160 -77 -298 -199 -360 -103 -53
-196 -62 -538 -55 l-303 7 0 43 0 43 70 7 70 7 -2 566 -3 566 -67 9 -68 8 0
49 0 49 213 3 c315 5 444 1 512 -17z"/>
<path d="M2535 3181 l-70 -6 0 -250 0 -250 140 0 c124 0 145 3 181 22 72 38
114 125 115 235 2 201 -101 271 -366 249z"/>
<path d="M2460 2292 c0 -239 2 -271 16 -276 23 -9 232 -9 279 0 146 27 218
120 218 284 1 125 -31 187 -118 233 -35 19 -60 22 -217 25 l-178 4 0 -270z"/>
<path d="M1336 3959 c-17 -16 -36 -27 -43 -25 -7 3 -19 -7 -27 -22 -8 -15 -30
-43 -48 -63 -18 -20 -35 -43 -37 -50 -2 -8 -6 -23 -9 -34 -3 -12 25 8 76 54
45 41 85 72 87 69 3 -3 -15 -28 -41 -57 -49 -54 -50 -64 -4 -31 32 23 85 124
74 142 -4 7 -3 8 4 4 7 -4 12 -2 12 3 0 6 -5 11 -11 11 -8 0 -8 5 1 15 23 27
-4 15 -34 -16z"/>
<path d="M1037 1648 c3 -18 16 -48 29 -67 13 -19 21 -38 18 -43 -6 -10 48
-108 60 -108 5 0 5 6 0 13 -5 7 1 2 13 -12 22 -26 46 -23 24 2 -6 8 -9 21 -6
29 3 8 -13 44 -38 81 -24 36 -39 63 -33 61 7 -3 20 -20 31 -39 22 -42 50 -69
39 -39 -17 47 -82 121 -124 144 -18 10 -19 8 -13 -22z"/>
</g>
</svg>
