<?xml version="1.0" encoding="utf-8"?>
<!-- Svg Vector Icons : http://www.onlinewebfonts.com/icon -->
<!DOCTYPE svg PUBLIC "-//W3C//DTD SVG 1.1//EN" "http://www.w3.org/Graphics/SVG/1.1/DTD/svg11.dtd">
<svg version="1.1" xmlns="http://www.w3.org/2000/svg" xmlns:xlink="http://www.w3.org/1999/xlink" x="0px" y="0px" viewBox="0 0 1000 1000" enable-background="new 0 0 1000 1000" xml:space="preserve">
<metadata> Svg Vector Icons : http://www.onlinewebfonts.com/icon </metadata>
<g><path d="M328.5,531.8c0-7.3-2.5-14.7-2.5-24.5c0-95.5,76-171.5,171.5-171.5c9.8,0,19.6,0,27,2.4l102.9-100.4c-41.7-9.8-83.3-14.7-127.4-14.7c-208.3,0-389.6,115.1-490,281.8c41.6,68.6,98,129.8,166.6,176.4L328.5,531.8z M801.3,313.8L659.2,451c7.4,17.2,9.8,36.8,9.8,56.3c0,95.6-76,171.5-171.5,171.5c-22,0-41.7-4.9-61.3-12.3l-95.5,95.5c51.5,14.7,102.9,24.5,159.3,24.5c208.3,0,389.5-115.2,490-281.8C943.4,426.5,877.3,360.4,801.3,313.8z M558.8,551.5l-19.6,17.1C546.5,563.7,551.5,558.8,558.8,551.5z M796.4,147.2L130,798.9l53.9,53.9l666.4-654.1L796.4,147.2z"/></g>
</svg>