<?xml version="1.0" encoding="utf-8"?>
<!-- Svg Vector Icons : http://www.onlinewebfonts.com/icon -->
<!DOCTYPE svg PUBLIC "-//W3C//DTD SVG 1.1//EN" "http://www.w3.org/Graphics/SVG/1.1/DTD/svg11.dtd">
<svg version="1.1" xmlns="http://www.w3.org/2000/svg" xmlns:xlink="http://www.w3.org/1999/xlink" x="0px" y="0px" viewBox="0 0 1000 1000" enable-background="new 0 0 1000 1000" xml:space="preserve">
<metadata> Svg Vector Icons : http://www.onlinewebfonts.com/icon </metadata>
<g><path d="M500,781.9c-207.2,0-388.7-115.3-490-281.9c101.3-166.6,282.8-281.9,490-281.9c207.2,0,388.7,115.3,490,281.9C888.7,666.5,707.2,781.9,500,781.9z M500,326.9c-94.8,0-171.6,76.8-171.6,171.6S405.2,670,500,670c94.8,0,171.6-76.8,171.6-171.6S594.8,326.9,500,326.9z M500,573.6c-42.4,0-76.7-33.7-76.7-75.2c0-41.5,34.3-75.2,76.7-75.2c42.4,0,76.7,33.7,76.7,75.2C576.7,540,542.4,573.6,500,573.6z"/></g>
</svg>